<svg width="30" height="30" viewBox="0 0 30 30" fill="none" xmlns="http://www.w3.org/2000/svg">
<path d="M15 7.7705C14.2088 7.7705 13.4295 7.87141 12.6862 8.07322V6.39563V6.19381C12.6862 6.15597 12.6862 6.10551 12.6742 6.06767C12.5304 4.01167 11.0078 2.49805 9.16161 2.49805C7.30339 2.49805 5.78085 4.01167 5.63699 6.06767C5.625 6.11813 5.625 13.0934 5.625 13.0934V17.6343C5.625 17.6721 5.625 17.6973 5.625 17.7352C5.67295 23.1338 9.85694 27.5107 15 27.5107C20.179 27.5107 24.375 23.0959 24.375 17.6469C24.375 12.1852 20.179 7.7705 15 7.7705ZM15 25.9844C10.6242 25.9844 7.06362 22.2382 7.06362 17.6343V6.26949C7.06362 5.04598 7.99872 4.04951 9.16161 4.04951C10.3125 4.04951 11.2596 5.04598 11.2596 6.26949V17.5334C11.2596 19.7155 12.938 21.5823 15.012 21.5823C17.086 21.5823 18.7644 19.8164 18.7644 17.6343C18.7644 15.4521 17.086 13.6862 15.012 13.6862C14.1368 13.6862 13.3456 14.0016 12.6982 14.5187V12.8159C13.3935 12.4501 14.1728 12.2357 15.012 12.2357C17.8413 12.2357 20.1311 14.6449 20.1311 17.6217C20.1311 20.5985 17.8413 23.0076 15.012 23.0076C12.1827 23.0076 9.8929 20.5985 9.8929 17.6217V6.19381C9.8929 5.82802 9.56921 5.47484 9.17359 5.47484C8.77797 5.47484 8.45428 5.82802 8.45428 6.19381V17.6343C8.45428 17.8109 8.46627 17.9748 8.47826 18.1514C8.73002 21.7211 11.5593 24.5465 15.024 24.5465C18.6445 24.5465 21.5817 21.4562 21.5817 17.6469C21.5817 13.8376 18.6445 10.7473 15.024 10.7473C14.2088 10.7473 13.4295 10.8987 12.7102 11.1888V9.6373C13.4415 9.39764 14.2207 9.27151 15.024 9.27151C19.4118 9.27151 22.9604 13.0051 22.9604 17.6217C22.9364 22.2382 19.3878 25.9844 15 25.9844ZM12.6862 17.6343C12.6862 16.2972 13.7172 15.1999 15 15.1999C16.2708 15.1999 17.3138 16.2846 17.3138 17.6343C17.3138 18.9713 16.2828 20.0687 15 20.0687C13.7292 20.0561 12.6862 18.9713 12.6862 17.6343Z" fill="#3A3A3A"/>
</svg>
