<svg width="30" height="30" viewBox="0 0 30 30" fill="none" xmlns="http://www.w3.org/2000/svg">
<path d="M7.20956 12.3672C6.90993 12.3672 6.64359 12.4853 6.44384 12.7045C6.22744 12.9238 6.12756 13.1936 6.12756 13.5141C6.12756 13.8346 6.22744 14.0876 6.44384 14.3237C6.66024 14.543 6.90993 14.661 7.20956 14.661C7.50919 14.661 7.77553 14.543 7.99193 14.3237C8.20833 14.1044 8.32485 13.8346 8.32485 13.5141C8.32485 13.1936 8.20833 12.9238 7.99193 12.7045C7.77553 12.4684 7.52584 12.3672 7.20956 12.3672Z" fill="#3A3A3A"/>
<path d="M16.5481 12.3496C16.2484 12.3496 15.9821 12.4677 15.7823 12.6869C15.5659 12.9062 15.4661 13.1761 15.4661 13.4965C15.4661 13.817 15.5659 14.07 15.7823 14.3061C15.9987 14.5254 16.2484 14.6435 16.5481 14.6435C16.8477 14.6435 17.114 14.5254 17.3304 14.3061C17.5468 14.0869 17.6634 13.817 17.6634 13.4965C17.6634 13.1761 17.5468 12.9231 17.3304 12.6869C17.1307 12.4508 16.8643 12.3496 16.5481 12.3496Z" fill="#3A3A3A"/>
<path d="M22.7904 12.3672C22.4907 12.3672 22.2244 12.4853 22.0247 12.7045C21.8083 12.9238 21.7084 13.1936 21.7084 13.5141C21.7084 13.8346 21.8083 14.0876 22.0247 14.3237C22.2411 14.543 22.4907 14.661 22.7904 14.661C23.09 14.661 23.3563 14.543 23.5727 14.3237C23.7892 14.1044 23.9057 13.8346 23.9057 13.5141C23.9057 13.1936 23.7892 12.9238 23.5727 12.7045C23.3563 12.4684 23.09 12.3672 22.7904 12.3672Z" fill="#3A3A3A"/>
<path d="M25.5536 4.0332H4.44636C2.83169 4.0332 1.5 5.38253 1.5 7.01859V19.1119C1.5 20.748 2.83169 22.0973 4.44636 22.0973H12.7361C12.7361 22.0973 14.3342 26.5332 14.9168 26.5332C15.4994 26.5332 17.2306 22.0973 17.2306 22.0973H25.5536C27.1683 22.0973 28.5 20.748 28.5 19.1119V7.01859C28.5 5.38253 27.1683 4.0332 25.5536 4.0332ZM9.34032 15.1989C8.92417 15.6711 8.27497 15.8735 7.57583 15.8735C6.94328 15.8735 6.47719 15.688 6.14427 15.4181H6.12762V15.7555H4.54624V8.75584H6.12762V11.4376H6.16091C6.59371 11.0666 7.15968 10.9485 7.82552 10.9148C8.39149 10.8979 8.99075 11.2521 9.35697 11.6738C9.70654 12.0954 9.97287 12.7532 9.97287 13.4785C9.97287 14.2712 9.77312 14.7266 9.34032 15.1989ZM12.7528 15.8229H11.1381C11.1381 15.8229 11.1381 12.146 11.1381 11.4882C11.1381 10.4931 10.3557 10.3582 10.3557 10.3582V8.62091C10.3557 8.62091 12.6196 8.75584 12.7528 11.5388C12.7528 12.3316 12.7528 15.8229 12.7528 15.8229ZM19.0949 14.4905C18.9618 14.8109 18.762 15.0808 18.4957 15.3338C18.246 15.5699 17.9464 15.7555 17.6134 15.8904C17.2805 16.0253 16.9309 16.0928 16.5647 16.0928C16.1985 16.0928 15.849 16.0253 15.5327 15.8904C15.1998 15.7555 14.9001 15.5699 14.6504 15.3338C14.3841 15.0808 14.1843 14.7941 14.0512 14.4905C13.918 14.1869 13.8514 13.8495 13.8514 13.4953C13.8514 13.1411 13.918 12.8207 14.0512 12.5002C14.1843 12.1966 14.3841 11.9099 14.6504 11.6569C14.9168 11.4208 15.1998 11.2352 15.5327 11.1003C15.8656 10.9654 16.2152 10.8979 16.5647 10.8979C16.9309 10.8979 17.2805 10.9654 17.6134 11.1003C17.9464 11.2352 18.246 11.4208 18.4957 11.6569C18.762 11.9099 18.9451 12.1798 19.0949 12.5002C19.2281 12.8207 19.2947 13.1411 19.2947 13.4953C19.2947 13.8495 19.2281 14.17 19.0949 14.4905ZM25.4538 15.182C25.4538 16.4133 25.2207 17.1554 24.688 17.6783C24.0388 18.3023 23.1233 18.3361 22.3576 18.2349V16.9699C23.0068 17.0373 23.889 16.5988 23.889 15.7555V15.435H23.8724C23.5062 15.941 22.9901 16.1265 22.2744 16.1265C21.6252 16.1265 21.0592 15.8904 20.6763 15.435C20.2935 14.9796 20.1104 14.3724 20.1104 13.6134C20.1104 12.7532 20.3268 12.0786 20.7429 11.5726C21.1757 11.0666 21.775 10.8304 22.4741 10.8304C23.09 10.8304 23.4895 10.9822 23.8724 11.3364H23.889V10.9485H25.4704V15.182H25.4538Z" fill="#3A3A3A"/>
</svg>
