<svg width="100" height="100" viewBox="0 0 100 100" fill="none" xmlns="http://www.w3.org/2000/svg">
<rect width="100" height="100" rx="20" fill="#079FE0"/>
<path d="M35.4843 51.1715H64.5978C65.2624 51.1715 65.8791 50.8153 66.2087 50.2411C66.5383 49.6669 66.5383 48.9545 66.2087 48.3803L60.8071 39.0285C60.2329 38.029 59.3184 37.4601 58.303 37.4601C57.2875 37.4601 56.3731 38.0343 55.7989 39.0285L53.2948 43.3615L47.9995 34.1851C47.303 32.9783 46.2184 32.2871 45.0329 32.2871C43.8473 32.2871 42.7627 32.9783 42.0662 34.1851L33.8734 48.3803C33.5438 48.9545 33.5438 49.6669 33.8734 50.2411C34.2083 50.8153 34.8197 51.1715 35.4843 51.1715ZM58.303 42.1334L61.3706 47.4499H55.6553L55.4427 47.0831L58.303 42.1334ZM45.0329 36.4872L51.3596 47.4446H38.7061L45.0329 36.4872Z" fill="white"/>
<path d="M53.6455 38.901C55.198 38.901 56.4527 37.6463 56.4527 36.0991C56.4527 34.552 55.198 33.292 53.6455 33.292C52.0931 33.292 50.8384 34.5467 50.8384 36.0991C50.8384 37.6516 52.0931 38.901 53.6455 38.901Z" fill="white"/>
<path d="M67.8993 22H32.1774C28.2218 22 25 25.2218 25 29.1774V70.8539C25 74.8094 28.2218 78.0312 32.1774 78.0312H67.8993C71.8548 78.0312 75.0767 74.8094 75.0767 70.8539V29.1774C75.0767 25.2218 71.8548 22 67.8993 22ZM32.1774 25.7216H67.8993C69.8026 25.7216 71.3551 27.274 71.3551 29.1774V55.2179H28.7216V29.1774C28.7216 27.274 30.274 25.7216 32.1774 25.7216ZM67.8993 74.3096H32.1774C30.274 74.3096 28.7216 72.7572 28.7216 70.8539V58.9395H71.3551V70.8539C71.3551 72.7572 69.8026 74.3096 67.8993 74.3096Z" fill="white"/>
<path d="M65.3421 61.9326H34.0595C33.0334 61.9326 32.1987 62.7673 32.1987 63.7934C32.1987 64.8195 33.0334 65.6542 34.0595 65.6542H65.3474C66.3735 65.6542 67.2082 64.8195 67.2082 63.7934C67.2082 62.7673 66.3735 61.9326 65.3474 61.9326H65.3421Z" fill="white"/>
<path d="M55.5809 67.2549H34.0595C33.0334 67.2549 32.1987 68.0896 32.1987 69.1157C32.1987 70.1418 33.0334 70.9765 34.0595 70.9765H55.5809C56.607 70.9765 57.4417 70.1418 57.4417 69.1157C57.4417 68.0896 56.607 67.2549 55.5809 67.2549Z" fill="white"/>
</svg>
