<svg width="100" height="100" viewBox="0 0 100 100" fill="none" xmlns="http://www.w3.org/2000/svg">
<rect width="100" height="100" rx="20" fill="#079FE0"/>
<path d="M54.8322 20.5C55.6996 20.5 56.3976 21.2147 56.3976 22.0781V26.3887C56.3975 27.252 55.6996 27.9658 54.8322 27.9658C53.9647 27.9658 53.2668 27.252 53.2667 26.3887V22.0781C53.2667 21.2147 53.9647 20.5 54.8322 20.5Z" fill="white" stroke="white"/>
<path d="M54.8322 71.0342C55.6996 71.0342 56.3976 71.7489 56.3976 72.6123V76.9229C56.3975 77.7862 55.6996 78.5 54.8322 78.5C53.9647 78.5 53.2668 77.7862 53.2667 76.9229V72.6123C53.2667 71.7489 53.9647 71.0342 54.8322 71.0342Z" fill="white" stroke="white"/>
<path d="M27.7188 47.9277C28.5863 47.9277 29.2842 48.6424 29.2842 49.5059C29.284 50.3691 28.5861 51.083 27.7188 51.083H17.0654C16.1981 51.083 15.5002 50.3691 15.5 49.5059C15.5 48.6424 16.1979 47.9277 17.0654 47.9277H27.7188Z" fill="white" stroke="white"/>
<path d="M33.8019 54.3936C34.6694 54.3936 35.3673 55.1082 35.3673 55.9717C35.3671 56.8349 34.6693 57.5488 33.8019 57.5488H23.1486C22.2812 57.5488 21.5834 56.8349 21.5832 55.9717C21.5832 55.1082 22.2811 54.3936 23.1486 54.3936H33.8019Z" fill="white" stroke="white"/>
<path d="M33.8019 41.4619C34.6694 41.4619 35.3673 42.1766 35.3673 43.04C35.3671 43.9033 34.6693 44.6172 33.8019 44.6172H23.1486C22.2812 44.6172 21.5834 43.9033 21.5832 43.04C21.5832 42.1766 22.2811 41.4619 23.1486 41.4619H33.8019Z" fill="white" stroke="white"/>
<path d="M81.935 47.9277C82.8024 47.9279 83.5005 48.6426 83.5005 49.5059C83.5002 50.369 82.8022 51.0828 81.935 51.083H77.6733C76.806 51.083 76.1081 50.3691 76.1079 49.5059C76.1079 48.6424 76.8058 47.9277 77.6733 47.9277H81.935Z" fill="white" stroke="white"/>
<path d="M65.8124 36.0381C66.4212 35.5342 67.3276 35.5498 67.9071 36.1465C68.5094 36.7558 68.5335 37.7513 67.9032 38.373L67.9022 38.3721L55.9462 50.6406L55.9442 50.6436C55.6542 50.9369 55.2618 51.1152 54.8319 51.1152H54.3319V50.998C54.1108 50.9236 53.9031 50.8003 53.7333 50.623V50.624L47.6708 44.5674L47.6688 44.5645C47.0668 43.9551 47.0434 42.9595 47.6737 42.3379C48.2772 41.7323 49.263 41.7077 49.8798 42.3398L54.827 47.2852L65.6923 36.1475L65.6942 36.1455L65.8124 36.0381Z" fill="white" stroke="white"/>
<path d="M54.8323 20.5C70.6465 20.5001 83.511 33.5113 83.511 49.5059C83.5107 65.5 70.6571 78.5106 54.8323 78.5107H54.3323V78.4951C43.9319 78.3134 34.464 72.4703 29.5354 63.168L29.5344 63.166C29.1331 62.4008 29.4086 61.4511 30.178 61.0381C30.9439 60.6271 31.8873 60.9133 32.2942 61.6865C36.7578 70.1146 45.3893 75.3555 54.8323 75.3555C68.9114 75.3554 80.3799 63.7624 80.3801 49.5059C80.3801 35.2491 68.9116 23.6554 54.8323 23.6553C45.3994 23.6553 36.7576 28.8863 32.3049 37.3135C31.8986 38.0858 30.9428 38.3751 30.1848 37.96V37.959C29.4193 37.5453 29.1424 36.586 29.5471 35.8301H29.5481C34.5455 26.369 44.2376 20.5 54.8323 20.5Z" fill="white" stroke="white"/>
</svg>
