<svg width="50" height="50" viewBox="0 0 50 50" fill="none" xmlns="http://www.w3.org/2000/svg">
<path d="M25 50C20.3829 50 15.8789 48.7329 11.9617 46.3348C10.6287 46.2956 4.75334 48.4363 2.98486 49.1906L2.65093 49.6394L0.986643 49.089V47.4987L1.30543 47.3215C1.62244 46.7257 2.38023 45.2573 3.07747 43.6661C4.47907 40.4693 4.47373 39.4452 4.45147 39.2431C1.53874 35.049 0 30.1264 0 25C0 11.2146 11.2146 0 25 0C38.7854 0 50 11.2146 50 25C50 38.7854 38.7854 50 25 50ZM3.29653 48.7329C3.23776 48.837 3.19501 48.9074 3.17364 48.9359L3.16207 48.9519C3.21282 48.8851 3.25824 48.8121 3.29653 48.7329ZM12.0089 43.9092C12.5619 43.9092 12.8566 44.0347 13.1015 44.187C16.6661 46.4025 20.7801 47.5735 24.9991 47.5735C37.4461 47.5735 47.5717 37.447 47.5717 25.0009C47.5717 12.5548 37.447 2.42743 25 2.42743C12.553 2.42743 2.42743 12.553 2.42743 25C2.42743 29.6563 3.83348 34.1264 6.49332 37.927C7.04274 38.7124 7.2894 40.0445 5.38914 44.4381C5.17275 44.9368 4.94301 45.4426 4.71416 45.927C5.31968 45.7035 5.96349 45.4728 6.59483 45.2565C9.60196 44.2262 11.1309 43.9083 12.0098 43.9083L12.0089 43.9092Z" fill="white"/>
<path d="M20.7952 20.7158C20.7952 20.7158 19.756 21.3748 20.1104 23.3774C20.1104 23.3774 22.5441 29.9438 25.5352 30.9571C25.5352 30.9571 26.0926 31.4638 27.715 30.7033L29.3375 29.9429C29.3375 29.9429 31.1879 29.3347 32.4559 29.9936C33.7239 30.6526 34.8308 32.5627 35.1006 33.779C35.3704 34.9954 35.1006 35.3 35.1006 35.3C35.1006 35.3 32.8611 39.1958 27.8166 37.877C27.8166 37.877 23.0507 36.9901 18.2342 28.3196C13.4176 19.6499 15.0401 16.202 15.0401 16.202C15.0401 16.202 17.2199 11.3347 20.7694 11.8921C20.7694 11.8921 23.0507 12.5003 23.9127 15.8467C23.9127 15.8467 25.13 17.9758 20.7943 20.714L20.7952 20.7158Z" fill="white"/>
</svg>
