<svg width="100" height="100" viewBox="0 0 100 100" fill="none" xmlns="http://www.w3.org/2000/svg">
<rect width="100" height="100" rx="20" fill="#079FE0"/>
<path d="M69.944 36.9732H61.1165C60.8284 36.9732 60.5455 37.0092 60.2728 37.0761C59.7841 35.075 59.2645 32.0759 59.4343 28.7733C59.5218 27.014 58.889 25.3936 57.6904 24.3184C56.4815 23.233 54.8354 22.7957 53.0606 23.089C49.4494 23.6805 47.1036 26.7568 47.0779 30.9236C47.0676 33.2385 47.4226 36.3302 47.7415 38.7119H34.1968C30.7656 38.7119 27.9671 41.5053 27.9671 44.9416C27.9671 46.4437 28.5021 47.8224 29.3869 48.8975C27.9362 50.0395 27 51.8091 27 53.7948C27 55.7805 27.9311 57.5501 29.3869 58.6921C28.497 59.7672 27.9671 61.1459 27.9671 62.648C27.9671 65.1995 29.5104 67.3961 31.707 68.3581C31.1668 69.2789 30.853 70.354 30.853 71.5012C30.853 74.9324 33.6463 77.7257 37.0775 77.7257H44.907C45.2414 77.7617 46.1519 77.8543 47.4174 77.8543C50.0204 77.8543 54.1152 77.4685 57.675 75.4931C58.1431 76.9438 59.5063 77.9984 61.1113 77.9984H69.9388C71.9296 77.9984 73.55 76.3779 73.55 74.3871V40.5844C73.55 38.5936 71.9296 36.9732 69.9388 36.9732H69.944ZM45.2568 74.1402C45.1797 74.1299 45.1025 74.1248 45.0202 74.1248H37.0827C35.6371 74.1248 34.4591 72.9467 34.4591 71.5012C34.4591 70.0557 35.6371 68.8777 37.0827 68.8777C38.0755 68.8777 38.8831 68.07 38.8831 67.0772C38.8831 66.0844 38.0755 65.2767 37.0827 65.2767H34.1968C32.7512 65.2767 31.5681 64.0987 31.5681 62.6532C31.5681 61.2076 32.7461 60.0296 34.1968 60.0296C35.1896 60.0296 35.9972 59.222 35.9972 58.2291C35.9972 57.2363 35.1896 56.4286 34.1968 56.4286H33.2348C31.7841 56.4286 30.6061 55.2506 30.6061 53.8C30.6061 52.3493 31.7841 51.1712 33.2348 51.1712H34.1968C35.1896 51.1712 35.9972 50.3636 35.9972 49.3708C35.9972 48.3779 35.1896 47.5703 34.1968 47.5703C32.7512 47.5703 31.5681 46.3923 31.5681 44.9467C31.5681 43.5012 32.7461 42.318 34.1968 42.318H49.8095C50.329 42.318 50.828 42.0917 51.1675 41.6956C51.5122 41.2995 51.6614 40.7799 51.5894 40.2604L51.5739 40.1678C51.2756 38.0741 50.6583 33.7169 50.6737 30.9442C50.6891 28.5161 51.7643 26.9471 53.6368 26.6436C54.3261 26.5304 54.8971 26.6539 55.2881 27.0037C55.679 27.3535 55.8745 27.9142 55.8385 28.5881C55.5453 34.2828 57.0217 39.072 57.5104 40.4816C57.5104 40.5176 57.5052 40.5484 57.5052 40.5844V71.28C52.9166 75.061 45.334 74.1453 45.2568 74.1351V74.1402ZM69.9491 74.3923L61.1062 74.382L61.1165 40.5742L69.9542 40.5844V74.3923H69.9491Z" fill="white"/>
<path d="M65.5302 72.7673C66.8523 72.7673 67.9223 71.6973 67.9223 70.3752C67.9223 69.0531 66.8523 67.9883 65.5302 67.9883C64.2082 67.9883 63.1382 69.0583 63.1382 70.3752C63.1382 71.6921 64.2082 72.7673 65.5302 72.7673Z" fill="white"/>
</svg>
