<svg width="22" height="20" viewBox="0 0 22 20" fill="none" xmlns="http://www.w3.org/2000/svg">
<path d="M11.1463 0.708984C16.9463 0.708984 21.6473 4.37298 21.6473 8.89398C21.6473 13.414 16.9463 17.078 11.1473 17.078C10.57 17.077 9.99319 17.0402 9.42034 16.968L5.01234 19.851C4.51134 20.116 4.33434 20.087 4.54034 19.438L5.43234 15.76C2.55234 14.3 0.647339 11.77 0.647339 8.89398C0.647339 4.37398 5.34734 0.708984 11.1473 0.708984M17.0553 8.76898L18.5253 7.34498C18.6102 7.25689 18.6575 7.13932 18.6573 7.01703C18.6572 6.89474 18.6096 6.77728 18.5245 6.68939C18.4395 6.60151 18.3237 6.55005 18.2015 6.54587C18.0793 6.54169 17.9602 6.58511 17.8693 6.66698L15.9413 8.53298V6.99098C15.9413 6.8658 15.8916 6.74575 15.8031 6.65723C15.7146 6.56871 15.5945 6.51898 15.4693 6.51898C15.3442 6.51898 15.2241 6.56871 15.1356 6.65723C15.0471 6.74575 14.9973 6.8658 14.9973 6.99098V9.54798C14.9807 9.62105 14.9807 9.69692 14.9973 9.76998V11.209C14.9973 11.3342 15.0471 11.4542 15.1356 11.5427C15.2241 11.6313 15.3442 11.681 15.4693 11.681C15.5945 11.681 15.7146 11.6313 15.8031 11.5427C15.8916 11.4542 15.9413 11.3342 15.9413 11.209V9.84598L16.3683 9.43298L17.7963 11.466C17.832 11.5167 17.8773 11.56 17.9297 11.5932C17.982 11.6265 18.0404 11.6491 18.1015 11.6598C18.1626 11.6704 18.2252 11.669 18.2858 11.6555C18.3463 11.6419 18.4036 11.6166 18.4543 11.581C18.5051 11.5453 18.5483 11.5 18.5816 11.4477C18.6148 11.3953 18.6374 11.3369 18.6481 11.2758C18.6588 11.2147 18.6573 11.1521 18.6438 11.0916C18.6303 11.031 18.605 10.9737 18.5693 10.923L17.0553 8.76898ZM14.0973 10.693H12.6373V7.00598C12.6318 6.88469 12.5796 6.77022 12.4918 6.68636C12.404 6.6025 12.2873 6.5557 12.1658 6.5557C12.0444 6.5557 11.9277 6.6025 11.8399 6.68636C11.752 6.77022 11.6999 6.88469 11.6943 7.00598V11.165C11.6943 11.425 11.9043 11.637 12.1653 11.637H14.0973C14.2225 11.637 14.3426 11.5873 14.4311 11.4987C14.5196 11.4102 14.5693 11.2902 14.5693 11.165C14.5693 11.0398 14.5196 10.9197 14.4311 10.8312C14.3426 10.7427 14.2225 10.693 14.0973 10.693ZM8.24034 9.60198L8.93634 7.89398L9.57434 9.60098L8.24034 9.60198ZM10.7633 10.089L10.7653 10.073C10.765 9.95409 10.7196 9.83975 10.6383 9.75298L9.59234 6.95298C9.54849 6.81955 9.46497 6.70268 9.35293 6.61798C9.24089 6.53328 9.10567 6.48479 8.96534 6.47898C8.82411 6.47892 8.68616 6.52158 8.56961 6.60136C8.45307 6.68113 8.36338 6.7943 8.31234 6.92598L6.65034 11.001C6.603 11.1169 6.60364 11.2468 6.65211 11.3623C6.70059 11.4777 6.79294 11.5691 6.90884 11.6165C7.02474 11.6638 7.1547 11.6632 7.27013 11.6147C7.38555 11.5662 7.477 11.4739 7.52434 11.358L7.85634 10.545H9.92634L10.2243 11.345C10.2447 11.4048 10.2768 11.4599 10.3188 11.5071C10.3608 11.5542 10.4119 11.5925 10.4689 11.6195C10.526 11.6466 10.5879 11.6619 10.651 11.6646C10.7141 11.6673 10.7771 11.6573 10.8363 11.6353C10.8955 11.6132 10.9496 11.5794 10.9955 11.536C11.0414 11.4926 11.0781 11.4405 11.1035 11.3826C11.1288 11.3248 11.1423 11.2625 11.1432 11.1993C11.144 11.1362 11.1322 11.0735 11.1083 11.015L10.7633 10.089ZM7.44034 7.01098C7.4406 6.94901 7.42861 6.8876 7.40504 6.83028C7.38148 6.77296 7.34681 6.72086 7.30304 6.677C7.25926 6.63313 7.20724 6.59835 7.14997 6.57466C7.0927 6.55098 7.03131 6.53885 6.96934 6.53898H3.72434C3.59916 6.53898 3.4791 6.58871 3.39058 6.67723C3.30207 6.76575 3.25234 6.8858 3.25234 7.01098C3.25234 7.13617 3.30207 7.25622 3.39058 7.34474C3.4791 7.43326 3.59916 7.48298 3.72434 7.48298H4.88434V11.219C4.88434 11.3442 4.93407 11.4642 5.02258 11.5527C5.1111 11.6413 5.23116 11.691 5.35634 11.691C5.48152 11.691 5.60158 11.6413 5.69009 11.5527C5.77861 11.4642 5.82834 11.3442 5.82834 11.219V7.48298H6.96834C7.0304 7.48325 7.09189 7.47122 7.14928 7.44759C7.20666 7.42397 7.2588 7.38921 7.30268 7.34533C7.34657 7.30145 7.38132 7.24931 7.40495 7.19192C7.42858 7.13454 7.4406 7.07304 7.44034 7.01098Z" fill="black"/>
</svg>
