<svg width="22" height="22" viewBox="0 0 22 22" fill="none" xmlns="http://www.w3.org/2000/svg">
<path d="M16.9745 21.2085C16.0595 21.2085 14.7742 20.8776 12.8495 19.8023C10.5091 18.4898 8.69874 17.2781 6.37093 14.9564C4.12655 12.7134 3.03437 11.2612 1.50577 8.47964C-0.221102 5.33902 0.0732728 3.69277 0.402335 2.98917C0.79421 2.14824 1.37265 1.64527 2.1203 1.14605C2.54497 0.867816 2.99437 0.629308 3.4628 0.433549C3.50968 0.413393 3.55327 0.394174 3.59218 0.376831C3.82421 0.272299 4.17577 0.114331 4.62109 0.283081C4.91827 0.394643 5.18359 0.622925 5.5989 1.03308C6.45062 1.87308 7.61452 3.74386 8.0439 4.66261C8.33218 5.28183 8.52296 5.69058 8.52343 6.14902C8.52343 6.68574 8.25343 7.09964 7.92577 7.54636C7.86437 7.63027 7.80343 7.71042 7.74437 7.78824C7.38765 8.25699 7.30937 8.39246 7.36093 8.63433C7.46546 9.12042 8.24499 10.5675 9.52609 11.8457C10.8072 13.124 12.2125 13.8543 12.7005 13.9584C12.9526 14.0123 13.0909 13.9307 13.5747 13.5614C13.6441 13.5084 13.7153 13.4536 13.7898 13.3987C14.2895 13.027 14.6842 12.764 15.2083 12.764H15.2111C15.6672 12.764 16.0576 12.9618 16.7045 13.2881C17.5483 13.7137 19.4753 14.8626 20.3205 15.7153C20.7316 16.1296 20.9608 16.394 21.0728 16.6907C21.2416 17.1375 21.0826 17.4876 20.9791 17.722C20.9617 17.7609 20.9425 17.8035 20.9223 17.8509C20.725 18.3185 20.4851 18.7669 20.2056 19.1906C19.7073 19.9359 19.2025 20.5129 18.3597 20.9053C17.9269 21.11 17.4533 21.2137 16.9745 21.2085Z" fill="black"/>
</svg>
