<svg width="82" height="83" viewBox="0 0 82 83" fill="none" xmlns="http://www.w3.org/2000/svg">
<rect x="0.263916" y="0.980469" width="81.4722" height="81.4722" rx="40.7361" fill="black" fill-opacity="0.6"/>
<path d="M49.5139 38.8008H43.6806V32.9674C43.6806 32.1939 43.3733 31.452 42.8263 30.9051C42.2793 30.3581 41.5374 30.0508 40.7639 30.0508C39.9903 30.0508 39.2485 30.3581 38.7015 30.9051C38.1545 31.452 37.8472 32.1939 37.8472 32.9674L37.9508 38.8008H32.0139C31.2403 38.8008 30.4985 39.1081 29.9515 39.6551C29.4045 40.202 29.0972 40.9439 29.0972 41.7174C29.0972 42.491 29.4045 43.2329 29.9515 43.7798C30.4985 44.3268 31.2403 44.6341 32.0139 44.6341L37.9508 44.5306L37.8472 50.4674C37.8472 51.241 38.1545 51.9829 38.7015 52.5298C39.2485 53.0768 39.9903 53.3841 40.7639 53.3841C41.5374 53.3841 42.2793 53.0768 42.8263 52.5298C43.3733 51.9829 43.6806 51.241 43.6806 50.4674V44.5306L49.5139 44.6341C50.2874 44.6341 51.0293 44.3268 51.5763 43.7798C52.1233 43.2329 52.4306 42.491 52.4306 41.7174C52.4306 40.9439 52.1233 40.202 51.5763 39.6551C51.0293 39.1081 50.2874 38.8008 49.5139 38.8008Z" fill="white"/>
</svg>
